<?xml version="1.0" encoding="UTF-8" standalone="no"?><!-- Generator: Gravit.io --><svg xmlns="http://www.w3.org/2000/svg" xmlns:xlink="http://www.w3.org/1999/xlink" style="isolation:isolate" viewBox="0 0 560 315" width="560pt" height="315pt"><defs><clipPath id="_clipPath_uzJN90OJ8xjwN2YwqoMMP1x8LrsLXB07"><rect width="560" height="315"/></clipPath></defs><g clip-path="url(#_clipPath_uzJN90OJ8xjwN2YwqoMMP1x8LrsLXB07)"><path d=" M 341.015 146.035 C 350.76 146.302 381.08 153.774 388.118 156.442 Q 442.77 181.93 420.604 180.726 C 353.888 177.102 252.647 191.518 341.015 146.035 Z " fill="rgb(170,200,215)" vector-effect="non-scaling-stroke" stroke-width="1" stroke="rgb(0,0,0)" stroke-linejoin="miter" stroke-linecap="square" stroke-miterlimit="3"/><path d=" M 181.023 113.506 C 164.676 115.928 143.052 110.209 149.079 146.035 C 152.894 168.713 158.689 169.678 162.615 170.079 Q 178.316 171.68 330.455 179.685 L 313.671 179.685 L 307.174 170.079 Q 361.094 150.469 341.015 146.035 C 304.109 137.884 224.956 136.873 214.05 141.259 C 190.751 150.628 196.207 111.256 181.023 113.506 Z " fill="rgb(234,234,234)" vector-effect="non-scaling-stroke" stroke-width="1" stroke="rgb(0,0,0)" stroke-linejoin="miter" stroke-linecap="square" stroke-miterlimit="3"/><path d=" M 211.884 170.079 L 253.573 165.809 L 224.201 165.809 L 216.215 165.809" fill="rgb(183,170,170)" vector-effect="non-scaling-stroke" stroke-width="1" stroke="rgb(0,0,0)" stroke-linejoin="miter" stroke-linecap="square" stroke-miterlimit="3"/><path d=" M 252.491 158.337 L 208.635 200.5 L 240.038 200.5 L 313.671 158.337" fill="rgb(210,209,209)" vector-effect="non-scaling-stroke" stroke-width="1" stroke="rgb(0,0,0)" stroke-linejoin="miter" stroke-linecap="square" stroke-miterlimit="3"/><path d=" M 310.769 180.814 L 307.174 177.017 L 290.932 177.017 Q 297.429 193.562 307.174 193.028 Q 316.92 192.494 322.334 193.028 L 310.769 180.814 Z " fill="rgb(210,209,209)" vector-effect="non-scaling-stroke" stroke-width="1" stroke="rgb(0,0,0)" stroke-linejoin="miter" stroke-linecap="square" stroke-miterlimit="3"/><path d=" M 399.757 186.357 L 399.757 193.028 L 322.334 193.028 L 307.174 177.017 L 399.757 179.685 L 399.757 186.357 Z " fill="rgb(189,182,182)" vector-effect="non-scaling-stroke" stroke-width="1" stroke="rgb(0,0,0)" stroke-linejoin="miter" stroke-linecap="square" stroke-miterlimit="3"/><path d=" M 399.757 182.888 L 420.873 182.888 L 420.873 188.225 L 399.757 188.225" fill="rgb(132,116,116)" vector-effect="non-scaling-stroke" stroke-width="1" stroke="rgb(0,0,0)" stroke-linejoin="miter" stroke-linecap="square" stroke-miterlimit="3"/><ellipse vector-effect="non-scaling-stroke" cx="210.80112306085562" cy="164.20797341619343" rx="5.9556436623541344" ry="5.870769006204" fill="rgb(217,198,198)" stroke-width="1" stroke="rgb(0,0,0)" stroke-linejoin="miter" stroke-linecap="square" stroke-miterlimit="3"/><ellipse vector-effect="non-scaling-stroke" cx="210.80112306085567" cy="164.20797341619337" rx="4.060666133423268" ry="3.735943913038909" fill="rgb(128,123,123)" stroke-width="1" stroke="rgb(0,0,0)" stroke-linejoin="miter" stroke-linecap="square" stroke-miterlimit="3"/></g></svg>